<svg width="400" height="200" viewBox="0 0 400 200" fill="none" xmlns="http://www.w3.org/2000/svg">
<path d="M93.5183 100.034C93.5183 96.5173 92.7275 93.2069 91.2676 90.3103C89.8076 87.4138 87.8002 85.069 85.2452 83.4138C82.6903 81.7586 79.892 80.8621 76.7896 80.8621C73.6263 80.8621 70.7672 81.7586 68.2123 83.4138C65.6574 85.069 63.6499 87.4138 62.19 90.3103C60.73 93.2069 60 96.4483 60 100.034C60 103.621 60.6692 106.931 62.0075 109.828C63.3458 112.724 65.2315 115 67.604 116.655C70.0373 118.379 72.653 119.207 75.573 119.207H76.0596H90.5984C91.3892 119.207 92.0584 118.862 92.6667 118.241C93.2142 117.621 93.5183 116.862 93.5183 115.897V115.414V100.034ZM67.3607 106.655C66.3873 104.724 65.9615 102.517 65.9615 100.034C65.9615 97.6207 66.3873 95.4138 67.3607 93.4138C68.334 91.4828 69.6114 89.8966 71.2539 88.7931C72.8964 87.6897 74.7213 87.069 76.7896 87.069C78.797 87.069 80.622 87.6897 82.2645 88.7931C83.9069 89.8966 85.1844 91.4828 86.1577 93.4138C87.0702 95.4138 87.5568 97.6207 87.5568 100.034C87.5568 102.517 87.0702 104.724 86.1577 106.655C85.1844 108.586 83.9069 110.172 82.2645 111.276C80.622 112.379 78.797 112.931 76.7896 112.931C74.7213 112.931 72.8964 112.379 71.2539 111.276C69.6114 110.172 68.334 108.586 67.3607 106.655V106.655Z" fill="#6073FF"/>
<path d="M138.865 100.034C138.865 96.4483 138.135 93.2069 136.675 90.3103C135.215 87.4138 133.147 85.069 130.592 83.4138C128.037 81.7586 125.178 80.8621 122.076 80.8621H121.832H121.711H108.267C107.415 80.8621 106.746 81.2069 106.199 81.8276C105.59 82.5172 105.347 83.2759 105.347 84.1724V98.8621V100.034V131.483C105.347 132.586 105.59 133.414 106.199 134.034C106.746 134.724 107.476 135 108.449 135C109.301 135 110.031 134.724 110.639 134.034C111.248 133.414 111.552 132.586 111.552 131.483V112.862C112.951 114.862 114.654 116.379 116.723 117.483C118.73 118.586 120.92 119.138 123.292 119.138C126.212 119.138 128.828 118.31 131.201 116.655C133.573 115 135.459 112.724 136.797 109.828C138.135 106.931 138.865 103.621 138.865 100.034V100.034ZM132.904 100.034C132.904 102.517 132.417 104.724 131.444 106.655C130.471 108.586 129.193 110.172 127.551 111.276C125.908 112.379 124.083 112.931 122.076 112.931C120.007 112.931 118.183 112.379 116.54 111.276C114.898 110.172 113.62 108.586 112.708 106.655C111.734 104.724 111.309 102.517 111.309 100.034C111.309 97.6207 111.734 95.4138 112.708 93.4138C113.62 91.4828 114.898 89.8965 116.54 88.7931C118.183 87.6897 120.007 87.069 122.076 87.069C124.083 87.069 125.908 87.6897 127.551 88.7931C129.193 89.8965 130.471 91.4828 131.444 93.4138C132.417 95.4138 132.904 97.6207 132.904 100.034V100.034Z" fill="#C3D3D2"/>
<path d="M176.447 115.965C176.447 115.138 176.203 114.448 175.778 113.897L163.976 97.4827L175.169 86.1724C175.778 85.6207 176.143 84.7931 176.143 83.8276C176.143 83 175.838 82.3103 175.352 81.6896C174.804 81 174.135 80.5862 173.284 80.5862C172.554 80.5862 171.884 80.931 171.398 81.4827L156.616 96.4483V68.3793C156.616 67.4138 156.311 66.5862 155.764 65.9655C155.216 65.3448 154.486 65 153.635 65C152.722 65 151.992 65.3448 151.445 65.9655C150.897 66.5862 150.654 67.4138 150.654 68.3793V115.483C150.654 116.517 150.897 117.345 151.445 117.965C151.992 118.586 152.722 118.862 153.635 118.862C154.486 118.862 155.216 118.586 155.764 117.965C156.311 117.345 156.616 116.517 156.616 115.483V104.931L159.657 101.897L171.215 118.103C171.763 118.931 172.493 119.345 173.405 119.345C174.074 119.345 174.744 119.069 175.352 118.517C176.082 117.828 176.447 117 176.447 115.965V115.965Z" fill="#C3D3D2"/>
<path d="M249.08 84.7241C246.89 82.1034 244.031 80.7931 240.563 80.7931C227.971 80.7931 221.401 80.7931 220.793 80.7931H220.306H208.505C207.714 80.7931 206.984 81.1379 206.437 81.7586C205.828 82.4482 205.585 83.2069 205.585 84.1034C205.585 84.1724 205.585 84.3103 205.585 84.4482C205.585 84.5862 205.585 84.6551 205.585 84.7241V115.414C205.585 116.448 205.828 117.276 206.437 117.966C207.045 118.655 207.775 118.931 208.687 118.931C209.6 118.931 210.33 118.655 210.938 117.966C211.486 117.276 211.79 116.448 211.79 115.414V95.9655C211.79 93.4138 212.459 91.3448 213.797 89.6207C215.136 87.9655 216.9 87.1379 219.09 87.1379C221.158 87.1379 222.8 87.8965 224.017 89.3448C225.234 90.7931 225.903 92.931 225.903 95.6896V115.414C225.903 116.448 226.146 117.276 226.754 117.966C227.363 118.655 228.093 118.931 229.005 118.931C229.918 118.931 230.648 118.655 231.256 117.966C231.804 117.276 232.108 116.448 232.108 115.414V95.9655C232.108 93.4138 232.777 91.3448 234.115 89.6207C235.453 87.9655 237.218 87.1379 239.347 87.1379C241.415 87.1379 243.057 87.8965 244.274 89.3448C245.491 90.7931 246.16 92.931 246.16 95.6896V115.414C246.16 116.448 246.403 117.276 247.012 117.966C247.62 118.655 248.35 118.931 249.262 118.931C250.175 118.931 250.905 118.655 251.513 117.966C252.061 117.276 252.365 116.448 252.365 115.414V95.6896C252.365 91 251.27 87.3448 249.08 84.7241Z" fill="#C3D3D2"/>
<path d="M296.965 100.034C296.965 96.5172 296.174 93.2069 294.714 90.3103C293.254 87.4138 291.246 85.069 288.691 83.4138C286.137 81.7586 283.338 80.8621 280.236 80.8621C277.073 80.8621 274.213 81.7586 271.659 83.4138C269.104 85.069 267.096 87.4138 265.636 90.3103C264.176 93.2069 263.446 96.4483 263.446 100.034C263.446 103.621 264.115 106.931 265.454 109.828C266.792 112.724 268.678 115 271.05 116.655C273.483 118.379 276.099 119.207 279.019 119.207H279.506H294.045C294.835 119.207 295.505 118.862 296.113 118.241C296.66 117.621 296.965 116.862 296.965 115.897V115.414V100.034ZM270.807 106.655C269.834 104.724 269.408 102.517 269.408 100.034C269.408 97.6207 269.834 95.4138 270.807 93.4138C271.78 91.4828 273.058 89.8966 274.7 88.7931C276.343 87.6897 278.168 87.069 280.236 87.069C282.243 87.069 284.068 87.6897 285.711 88.7931C287.353 89.8966 288.631 91.4828 289.604 93.4138C290.516 95.4138 291.003 97.6207 291.003 100.034C291.003 102.517 290.516 104.724 289.604 106.655C288.631 108.586 287.353 110.172 285.711 111.276C284.068 112.379 282.243 112.931 280.236 112.931C278.168 112.931 276.343 112.379 274.7 111.276C273.058 110.172 271.78 108.586 270.807 106.655V106.655Z" fill="#6073FF"/>
<path d="M338.114 88.931C336.837 86.3103 335.073 84.2414 332.883 82.862C330.754 81.6207 328.442 80.931 325.887 80.862C325.826 80.862 325.704 80.7931 325.704 80.7931H311.713C310.861 80.7931 310.192 81.1379 309.645 81.7586C309.036 82.4482 308.793 83.2069 308.793 84.1034C308.793 84.1724 308.793 84.3103 308.793 84.3793C308.793 84.5172 308.793 84.5862 308.793 84.6551V115.414C308.793 116.448 309.036 117.276 309.645 117.966C310.253 118.655 310.983 118.931 311.896 118.931C312.808 118.931 313.538 118.655 314.146 117.966C314.694 117.276 314.998 116.448 314.998 115.414V95.9655C314.998 94.3103 315.363 92.8621 316.154 91.4827C316.945 90.1724 318.04 89.1379 319.439 88.3103C320.838 87.5517 322.42 87.1379 324.123 87.1379C327.043 87.1379 329.354 88.1034 331.119 90.0345C332.883 91.9655 333.795 94.7931 333.795 98.4483V115.414C333.795 116.448 334.038 117.276 334.647 117.966C335.255 118.655 335.985 118.931 336.898 118.931C337.749 118.931 338.479 118.655 339.088 117.966C339.696 117.276 340 116.448 340 115.414V98.4483C340 94.7241 339.331 91.5517 338.114 88.931V88.931Z" fill="#C3D3D2"/>
</svg>
